<svg width="226" height="78" viewBox="0 0 226 78" fill="none" xmlns="http://www.w3.org/2000/svg">
<path d="M189.699 54.4249C187.934 55.2423 186.052 55.7791 184.12 56.0155V48.0254C186.717 46.965 189.144 44.4625 189.144 39.012V12.5392L226 33.551L189.677 54.4938L189.699 54.4249ZM162.534 48.6988C163.503 51.4482 165.154 53.9101 167.335 55.8564H156.032C152.128 55.8564 150.48 54.2181 150.48 50.3371V21.2769C150.48 19.9832 149.787 19.3788 148.571 19.3788H147.029L149.749 12.2211H153.253C157.243 12.2211 158.891 13.8594 158.891 17.7404V46.8006C158.891 48.0943 159.585 48.6988 160.801 48.6988H162.534ZM166.054 39.9028L166.316 0.174968H174.471V12.4385H179.485V19.5484H174.471V38.9537C174.471 44.5102 176.973 46.9756 179.623 48.036V55.989C173.778 55.2467 166.054 52.0072 166.054 39.9028ZM148.843 5.074C148.843 4.07046 149.142 3.08946 149.703 2.25504C150.264 1.42062 151.061 0.770277 151.994 0.386238C152.926 0.00219849 153.953 -0.0982837 154.943 0.0974978C155.933 0.293279 156.842 0.776531 157.556 1.48614C158.27 2.19576 158.756 3.09986 158.953 4.08412C159.15 5.06838 159.049 6.08859 158.663 7.01574C158.276 7.94289 157.622 8.73534 156.783 9.29288C155.943 9.85042 154.956 10.148 153.947 10.148C152.593 10.148 151.295 9.61342 150.338 8.66186C149.38 7.7103 148.843 6.41971 148.843 5.074Z" fill="#E73D31"/>
<path d="M117.955 56.0632L101.389 12.4703H110.2L122.937 46.069L135.476 12.4703H144.288L127.721 56.0632H117.955ZM0 50.6976L4.07495 44.7488C4.07495 44.7488 9.0193 49.8387 16.6572 49.8387C20.3001 49.8387 23.943 47.9406 23.943 44.4041C23.943 36.3822 1.38676 38.0418 1.38676 23.7953C1.38676 15.8423 8.50194 11.3781 17.2599 11.3781C26.8926 11.3781 31.3996 16.2082 31.3996 16.2082L28.018 22.5016C28.018 22.5016 24.1137 18.6206 17.1745 18.6206C13.5316 18.6206 9.97404 20.1741 9.97404 23.9703C9.97404 31.8119 32.5356 30.0888 32.5356 44.4041C32.5356 51.6467 26.2899 57.0812 16.6625 57.0812C5.89908 57.0812 0 50.6976 0 50.6976ZM88.1876 44.1444V0.365839H96.5988V42.681C96.5988 47.9406 98.679 48.8896 101.282 48.8896C101.776 48.8879 102.269 48.8578 102.759 48.7995V56.2223C101.837 56.3355 100.909 56.394 99.9804 56.3972C95.2121 56.3919 88.1876 55.0983 88.1876 44.1444ZM35.1278 35.4014C35.1268 30.7272 36.5202 26.1576 39.132 22.2707C41.7437 18.3838 45.4564 15.3542 49.8004 13.5649C54.1445 11.7757 58.9247 11.3073 63.5366 12.2189C68.1485 13.1306 72.3848 15.3813 75.7098 18.6865C79.0347 21.9916 81.2989 26.2027 82.216 30.7872C83.1331 35.3717 82.6619 40.1235 80.8619 44.4417C79.062 48.7599 76.0142 52.4505 72.104 55.0467C68.1939 57.6429 63.597 59.0281 58.8948 59.027C52.5914 59.027 46.5462 56.5379 42.089 52.1072C37.6318 47.6766 35.1278 41.6673 35.1278 35.4014ZM43.4057 35.4014C43.4057 38.4424 44.3129 41.4152 46.0125 43.9437C47.7121 46.4722 50.1279 48.443 52.9542 49.6067C55.7806 50.7705 58.8907 51.075 61.8911 50.4817C64.8916 49.8884 67.6477 48.424 69.8109 46.2737C71.9741 44.1233 73.4472 41.3836 74.044 38.401C74.6409 35.4184 74.3346 32.3269 73.1638 29.5173C71.9931 26.7078 70.0106 24.3064 67.4669 22.6169C64.9233 20.9274 61.9327 20.0256 58.8735 20.0256C54.7712 20.0256 50.8369 21.6456 47.9361 24.5291C45.0354 27.4126 43.4057 31.3235 43.4057 35.4014Z" fill="#459EA7"/>
<path d="M220.423 75.7023H221.294C221.482 76.6214 222.149 77.1728 223.375 77.1728C224.397 77.1728 225.091 76.7076 225.091 75.9838C225.091 75.4094 224.645 75.0188 224.015 74.9211L222.59 74.6569C221.541 74.4846 220.724 73.9906 220.724 72.859C220.724 71.7274 221.73 70.86 223.241 70.86C224.521 70.86 225.855 71.4344 225.962 72.9968H225.107C224.984 72.1295 224.306 71.6584 223.241 71.6584C222.176 71.6584 221.627 72.1295 221.627 72.7785C221.627 73.2898 221.972 73.6861 222.87 73.8297L224.123 74.0595C225.032 74.2203 226 74.6339 226 75.9206C226 77.2073 224.924 78 223.359 78C221.794 78 220.627 77.2303 220.423 75.7023ZM0.640037 69.1885C0.557473 69.1915 0.475169 69.1769 0.397984 69.1454C0.3208 69.114 0.250298 69.0663 0.190641 69.0053C0.130984 68.9442 0.0833815 68.8711 0.0506424 68.79C0.0179033 68.709 0.000691682 68.6218 2.33831e-05 68.5336C-0.000685952 68.4461 0.0147496 68.3593 0.0454488 68.2782C0.076148 68.197 0.12151 68.1232 0.178943 68.0608C0.236377 67.9984 0.304758 67.9486 0.380181 67.9145C0.455605 67.8803 0.536594 67.8623 0.618523 67.8615C0.704705 67.8552 0.79118 67.868 0.872563 67.8989C0.953945 67.9298 1.02849 67.9783 1.09156 68.0414C1.15463 68.1044 1.20486 68.1807 1.23914 68.2654C1.27342 68.35 1.29101 68.4414 1.29081 68.5336C1.29082 68.6206 1.27461 68.7067 1.24313 68.7869C1.21165 68.8671 1.16552 68.9398 1.10744 69.0008C1.04936 69.0617 0.980497 69.1097 0.904864 69.1419C0.829231 69.1742 0.748345 69.19 0.666928 69.1885H0.640037ZM1.10257 71.061V77.7817H0.172128V71.061H1.10257ZM6.84655 70.8313C8.42776 70.8313 9.53568 72.0088 9.53568 73.8987V77.7645H8.60524V73.9446C8.60524 72.543 7.83077 71.7446 6.6852 71.7446C6.25992 71.7592 5.84376 71.8801 5.47015 72.0975C5.09653 72.315 4.77586 72.623 4.5339 72.9968V77.7645H3.5927V71.061H4.51776V71.8652C4.82106 71.5347 5.18357 71.2729 5.58367 71.0952C5.98377 70.9176 6.41327 70.8278 6.84655 70.8313ZM14.801 70.8313C16.3768 70.8313 17.4901 72.0088 17.4901 73.8987V77.7645H16.5597V73.9446C16.5597 72.543 15.7852 71.7446 14.6397 71.7446C14.2144 71.7592 13.7982 71.8801 13.4246 72.0975C13.051 72.315 12.7303 72.623 12.4883 72.9968V77.7645H11.5472V71.061H12.4722V71.8652C12.7755 71.5347 13.138 71.2729 13.5381 71.0952C13.9382 70.9176 14.3677 70.8278 14.801 70.8313ZM22.5188 70.8715C23.1772 70.8749 23.8199 71.0868 24.3656 71.4803C24.9113 71.8738 25.3355 72.4314 25.5845 73.0824C25.8335 73.7334 25.8962 74.4486 25.7646 75.1377C25.633 75.8267 25.3131 76.4586 24.8453 76.9535C24.3774 77.4483 23.7827 77.7839 23.1363 77.9177C22.4899 78.0516 21.8208 77.9777 21.2137 77.7054C20.6067 77.4332 20.0888 76.9748 19.7256 76.3882C19.3625 75.8016 19.1703 75.1131 19.1735 74.4099C19.1714 73.9497 19.2542 73.4937 19.4171 73.0677C19.58 72.6417 19.8199 72.2541 20.123 71.9272C20.4262 71.6002 20.7866 71.3402 21.1839 71.162C21.5811 70.9838 22.0073 70.891 22.4381 70.8887H22.5188V70.8715ZM22.5188 77.0867C23.0092 77.0867 23.4885 76.9314 23.8963 76.6404C24.304 76.3494 24.6218 75.9359 24.8095 75.452C24.9971 74.9681 25.0462 74.4357 24.9505 73.922C24.8549 73.4083 24.6187 72.9365 24.272 72.5661C23.9252 72.1958 23.4835 71.9436 23.0025 71.8414C22.5216 71.7393 22.023 71.7917 21.57 71.9921C21.1169 72.1926 20.7297 72.532 20.4573 72.9674C20.1848 73.4029 20.0394 73.9149 20.0394 74.4386C20.0387 74.7866 20.1024 75.1313 20.2267 75.4529C20.3511 75.7745 20.5337 76.0667 20.764 76.3128C20.9944 76.5588 21.268 76.7538 21.5691 76.8866C21.8703 77.0195 22.193 77.0874 22.5188 77.0867ZM34.0014 71.061L31.0057 77.7817H30.1452L27.1495 71.061H28.1445L30.5701 76.518L32.9957 71.061H34.0014ZM41.7515 71.061V77.7817H40.8264V77.0407C40.2097 77.6579 39.3909 77.992 38.546 77.9713C37.6898 77.9344 36.88 77.5452 36.2864 76.8851C35.6927 76.2251 35.3612 75.3453 35.3612 74.43C35.3612 73.5147 35.6927 72.6349 36.2864 71.9749C36.88 71.3148 37.6898 70.9256 38.546 70.8887C39.3909 70.868 40.2097 71.2021 40.8264 71.8193V71.061H41.7515ZM38.6697 77.1039C39.0957 77.1059 39.5154 76.9945 39.891 76.7799C40.2665 76.5653 40.5862 76.2542 40.821 75.8747V73.0026C40.5859 72.6237 40.2661 72.3135 39.8905 72.0998C39.5148 71.8862 39.0953 71.776 38.6697 71.7791C38.0065 71.7791 37.3703 72.0605 36.9013 72.5614C36.4323 73.0623 36.1688 73.7417 36.1688 74.4501C36.1688 75.1585 36.4323 75.8379 36.9013 76.3388C37.3703 76.8397 38.0065 77.1211 38.6697 77.1211V77.1039ZM48.0118 76.9144L48.1624 77.7702C47.7219 77.9182 47.2634 77.9956 46.8017 78C45.3549 78 44.6504 77.1154 44.6504 75.3692V71.9227H42.9454V71.061H44.6235V68.5796H45.5485V71.061H47.9311V71.9227H45.5485V75.3692C45.5485 76.5927 45.9949 77.0924 46.9523 77.0924C47.3109 77.0794 47.6667 77.0196 48.0118 76.9144ZM50.5718 69.1885C50.4893 69.1915 50.407 69.1769 50.3298 69.1454C50.2526 69.114 50.1821 69.0663 50.1224 69.0053C50.0628 68.9442 50.0152 68.8711 49.9824 68.79C49.9497 68.709 49.9325 68.6218 49.9318 68.5336C49.9311 68.4461 49.9465 68.3593 49.9772 68.2782C50.0079 68.197 50.0533 68.1232 50.1107 68.0608C50.1682 67.9984 50.2365 67.9486 50.312 67.9145C50.3874 67.8803 50.4684 67.8623 50.5503 67.8615C50.6367 67.8553 50.7235 67.868 50.8051 67.8988C50.8868 67.9297 50.9617 67.9781 51.0252 68.0411C51.0887 68.1041 51.1394 68.1802 51.1743 68.2649C51.2092 68.3496 51.2274 68.4411 51.228 68.5336C51.2266 68.6211 51.209 68.7075 51.1764 68.7877C51.1437 68.868 51.0966 68.9406 51.0377 69.0014C50.9787 69.0622 50.9092 69.1101 50.8329 69.1421C50.7567 69.1742 50.6753 69.19 50.5933 69.1885H50.5718ZM51.0343 71.061V77.7817H50.1093V71.061H51.0343ZM56.5525 70.8887C57.2106 70.8933 57.8528 71.1061 58.3978 71.5003C58.9428 71.8945 59.3661 72.4524 59.6143 73.1035C59.8625 73.7546 59.9244 74.4697 59.7922 75.1584C59.66 75.847 59.3397 76.4784 58.8716 76.9727C58.4036 77.4669 57.8088 77.8019 57.1626 77.9353C56.5163 78.0687 55.8476 77.9945 55.2408 77.7221C54.634 77.4497 54.1165 76.9913 53.7535 76.4048C53.3906 75.8183 53.1986 75.1301 53.2018 74.4271C53.1932 73.5017 53.5276 72.6103 54.1322 71.9473C54.7368 71.2844 55.5624 70.9038 56.4287 70.8887H56.5525ZM56.5525 77.1039C57.0426 77.1174 57.5255 76.9753 57.94 76.6957C58.3546 76.4161 58.6822 76.0115 58.8815 75.533C59.0808 75.0545 59.1427 74.5237 59.0596 74.0077C58.9764 73.4916 58.7519 73.0134 58.4143 72.6336C58.0768 72.2538 57.6414 71.9895 57.1632 71.8739C56.6849 71.7584 56.1854 71.7969 55.7276 71.9845C55.2699 72.1722 54.8745 72.5006 54.5915 72.9282C54.3085 73.3558 54.1505 73.8634 54.1376 74.3869V74.4271C54.1276 74.7681 54.1805 75.1079 54.2935 75.427C54.4065 75.7461 54.5773 76.0383 54.796 76.2869C55.0148 76.5355 55.2773 76.7356 55.5685 76.8758C55.8598 77.016 56.174 77.0935 56.4933 77.1039H56.5525ZM65.1039 70.8313C66.6797 70.8313 67.793 72.0088 67.793 73.8987V77.7645H66.8626V73.9446C66.8626 72.543 66.0881 71.7446 64.9425 71.7446C64.5173 71.7592 64.1011 71.8801 63.7275 72.0975C63.3539 72.315 63.0332 72.623 62.7912 72.9968V77.7645H61.8662V71.061H62.8128V71.8652C63.1116 71.5396 63.468 71.2805 63.8613 71.103C64.2546 70.9255 64.6769 70.8332 65.1039 70.8313ZM76.5112 70.8715C77.1694 70.876 77.8115 71.0889 78.3565 71.4831C78.9015 71.8773 79.3248 72.4352 79.573 73.0863C79.8212 73.7374 79.8831 74.4525 79.7509 75.1411C79.6188 75.8298 79.2984 76.4612 78.8303 76.9554C78.3623 77.4497 77.7676 77.7847 77.1213 77.9181C76.4751 78.0515 75.8063 77.9773 75.1995 77.7049C74.5928 77.4324 74.0752 76.974 73.7123 76.3876C73.3493 75.8011 73.1574 75.1129 73.1605 74.4099C73.1584 73.9497 73.2412 73.4937 73.4041 73.0677C73.567 72.6417 73.8069 72.2541 74.11 71.9272C74.4132 71.6002 74.7736 71.3402 75.1709 71.162C75.5681 70.9838 75.9943 70.891 76.4251 70.8887H76.5112V70.8715ZM76.5112 77.0867C77.0013 77.1012 77.4844 76.9603 77.8995 76.6816C78.3146 76.4029 78.6431 75.9991 78.8433 75.5211C79.0435 75.0431 79.1066 74.5124 79.0245 73.9962C78.9424 73.4799 78.7188 73.0013 78.382 72.6207C78.0452 72.2401 77.6104 71.9748 77.1324 71.8581C76.6544 71.7415 76.1548 71.7788 75.6967 71.9654C75.2386 72.1519 74.8425 72.4794 74.5586 72.9063C74.2747 73.3333 74.1157 73.8405 74.1017 74.3639V74.4099C74.0784 75.0982 74.3116 75.7683 74.7502 76.2733C75.1887 76.7783 75.7969 77.077 76.4413 77.1039H76.5112V77.0867ZM85.0626 70.8313C86.6438 70.8313 87.7517 72.0088 87.7517 73.8987V77.7645H86.8267V73.9446C86.8267 72.543 86.0468 71.7446 84.9066 71.7446C84.4814 71.7592 84.0652 71.8801 83.6916 72.0975C83.318 72.315 82.9973 72.623 82.7553 72.9968V77.7645H81.8249V71.061H82.7553V71.8652C83.0548 71.5357 83.4136 71.2742 83.8101 71.0965C84.2066 70.9188 84.6326 70.8286 85.0626 70.8313ZM97.4326 76.8971L97.5832 77.753C97.1428 77.901 96.6842 77.9784 96.2225 77.9828C94.7758 77.9828 94.0389 77.0982 94.0389 75.3519V71.9054H92.3932V71.0438H94.0067V68.5623H94.9371V71.0438H97.3197V71.9054H94.9371V75.3519C94.9371 76.5754 95.3835 77.0752 96.3408 77.0752C96.7043 77.0709 97.0658 77.0168 97.4165 76.9144L97.4326 76.8971ZM105.301 74.3927V74.8177H99.9228C99.9602 75.4521 100.227 76.0461 100.666 76.4747C101.106 76.9033 101.684 77.133 102.278 77.1154C102.643 77.15 103.01 77.0707 103.334 76.8872C103.657 76.7037 103.924 76.4238 104.102 76.0815H105.107C104.742 77.2303 103.639 77.9713 102.252 77.9713C101.395 77.9344 100.586 77.5452 99.9919 76.8851C99.3982 76.2251 99.0667 75.3453 99.0667 74.43C99.0667 73.5147 99.3982 72.6349 99.9919 71.9749C100.586 71.3148 101.395 70.9256 102.252 70.8887C104.048 70.8887 105.301 72.3707 105.301 74.3927ZM102.209 71.7504C101.623 71.7463 101.058 71.9824 100.631 72.4099C100.204 72.8374 99.9464 73.4238 99.912 74.048H104.365C104.268 72.6924 103.462 71.7504 102.214 71.7504H102.209ZM108.189 67.4595V77.799H107.264V67.4595H108.189ZM116.482 74.3927V74.8177H111.104C111.144 75.451 111.411 76.0434 111.85 76.4714C112.289 76.8995 112.866 77.1302 113.46 77.1154C113.825 77.149 114.192 77.0693 114.517 76.8859C114.841 76.7025 115.109 76.4232 115.288 76.0815H116.294C115.928 77.2303 114.821 77.9713 113.433 77.9713C112.577 77.9344 111.767 77.5452 111.173 76.8851C110.58 76.2251 110.248 75.3453 110.248 74.43C110.248 73.5147 110.58 72.6349 111.173 71.9749C111.767 71.3148 112.577 70.9256 113.433 70.8887C115.229 70.8887 116.482 72.3707 116.493 74.3927H116.482ZM113.395 71.7504C112.808 71.7448 112.242 71.98 111.812 72.4075C111.383 72.8351 111.124 73.4223 111.088 74.048H115.52C115.423 72.6924 114.622 71.7504 113.368 71.7504H113.395ZM121.436 77.0522C121.88 77.0882 122.323 76.9569 122.686 76.681C123.05 76.405 123.311 76.0019 123.426 75.5415H124.388C124.247 76.2554 123.873 76.8922 123.331 77.3375C122.79 77.7828 122.118 78.0075 121.436 77.9713C120.58 77.9344 119.77 77.5452 119.176 76.8851C118.583 76.2251 118.251 75.3453 118.251 74.43C118.251 73.5147 118.583 72.6349 119.176 71.9749C119.77 71.3148 120.58 70.9256 121.436 70.8887C122.118 70.8525 122.79 71.0772 123.331 71.5225C123.873 71.9678 124.247 72.6046 124.388 73.3185H123.426C123.311 72.8587 123.049 72.4562 122.685 72.1805C122.322 71.9047 121.88 71.7729 121.436 71.8078C120.805 71.8393 120.209 72.1294 119.773 72.6177C119.336 73.106 119.093 73.755 119.093 74.43C119.093 75.105 119.336 75.754 119.773 76.2423C120.209 76.7306 120.805 77.0207 121.436 77.0522ZM129.374 70.8887C130.032 70.8933 130.674 71.1061 131.219 71.5003C131.764 71.8945 132.188 72.4524 132.436 73.1035C132.684 73.7546 132.746 74.4697 132.614 75.1584C132.482 75.847 132.161 76.4784 131.693 76.9727C131.225 77.4669 130.631 77.8019 129.984 77.9353C129.338 78.0687 128.669 77.9945 128.062 77.7221C127.456 77.4497 126.938 76.9913 126.575 76.4048C126.212 75.8183 126.02 75.1301 126.023 74.4271C126.015 73.5017 126.349 72.6103 126.954 71.9473C127.558 71.2844 128.384 70.9038 129.25 70.8887H129.374ZM129.374 77.1039C129.864 77.1185 130.347 76.9775 130.762 76.6988C131.178 76.4202 131.506 76.0163 131.706 75.5383C131.906 75.0603 131.969 74.5297 131.887 74.0134C131.805 73.4972 131.582 73.0185 131.245 72.6379C130.908 72.2574 130.473 71.992 129.995 71.8754C129.517 71.7587 129.018 71.796 128.56 71.9826C128.102 72.1692 127.705 72.4966 127.422 72.9236C127.138 73.3505 126.979 73.8577 126.965 74.3812V74.4271C126.944 75.1139 127.18 75.7812 127.619 76.283C128.059 76.7847 128.667 77.0799 129.31 77.1039H129.374ZM142.352 70.8313C143.863 70.8313 144.928 72.0088 144.928 73.8987V77.7645H144.025V73.9446C144.025 72.543 143.341 71.7446 142.212 71.7446C141.797 71.7452 141.39 71.8663 141.035 72.095C140.68 72.3237 140.389 72.6513 140.195 73.0428C140.249 73.3245 140.276 73.6112 140.276 73.8987V77.7645H139.351V73.9446C139.351 72.543 138.657 71.7446 137.544 71.7446C137.148 71.7533 136.76 71.8703 136.418 72.0845C136.076 72.2987 135.792 72.6029 135.591 72.9681V77.7645H134.666V71.061H135.591V71.8365C135.849 71.5097 136.174 71.2507 136.54 71.0793C136.907 70.908 137.305 70.829 137.705 70.8485C138.136 70.8339 138.562 70.9423 138.94 71.1624C139.318 71.3825 139.635 71.7065 139.856 72.1007C140.148 71.6931 140.527 71.3655 140.961 71.1448C141.395 70.9241 141.871 70.8166 142.352 70.8313ZM154.663 70.8313C156.174 70.8313 157.239 72.0088 157.239 73.8987V77.7645H156.308V73.9446C156.308 72.543 155.631 71.7446 154.501 71.7446C154.087 71.7452 153.68 71.8663 153.324 72.095C152.969 72.3237 152.679 72.6513 152.485 73.0428C152.538 73.3245 152.565 73.6112 152.565 73.8987V77.7645H151.64V73.9446C151.64 72.543 150.946 71.7446 149.828 71.7446C149.432 71.7543 149.046 71.8718 148.705 72.0859C148.364 72.3001 148.081 72.6038 147.881 72.9681V77.7645H146.956V71.061H147.881V71.8365C148.138 71.5102 148.461 71.2514 148.827 71.08C149.193 70.9087 149.59 70.8295 149.989 70.8485C150.42 70.8327 150.846 70.9405 151.225 71.1608C151.603 71.381 151.919 71.7056 152.14 72.1007C152.436 71.6902 152.819 71.3608 153.258 71.1401C153.696 70.9193 154.178 70.8134 154.663 70.8313ZM164.914 71.0438V77.7645H163.989V76.9833C163.685 77.3055 163.323 77.5598 162.926 77.7314C162.529 77.903 162.104 77.9884 161.676 77.9828C160.095 77.9828 158.987 76.8339 158.987 74.9269V71.061H159.912V74.8924C159.912 76.2997 160.692 77.1039 161.837 77.1039C162.263 77.0893 162.679 76.9685 163.052 76.751C163.426 76.5335 163.747 76.2255 163.989 75.8517V71.061L164.914 71.0438ZM170.469 70.8313C172.051 70.8313 173.159 72.0088 173.159 73.8987V77.7645H172.228V73.9446C172.228 72.543 171.454 71.7446 170.308 71.7446C169.883 71.7592 169.467 71.8801 169.093 72.0975C168.719 72.315 168.399 72.623 168.157 72.9968V77.7645H167.226V71.061H168.157V71.8652C168.458 71.5368 168.818 71.2761 169.215 71.0986C169.612 70.921 170.039 70.8301 170.469 70.8313ZM175.848 69.1712C175.686 69.1729 175.53 69.1073 175.412 68.9883C175.295 68.8693 175.225 68.7063 175.218 68.5336C175.213 68.3963 175.246 68.2604 175.313 68.1432C175.38 68.0259 175.479 67.9325 175.595 67.8748C175.712 67.817 175.842 67.7976 175.969 67.8188C176.096 67.8401 176.215 67.9011 176.309 67.9942C176.404 68.0872 176.471 68.2082 176.501 68.3417C176.531 68.4753 176.524 68.6154 176.48 68.7445C176.436 68.8735 176.356 68.9857 176.253 69.0667C176.149 69.1478 176.025 69.1942 175.896 69.1999H175.858L175.848 69.1712ZM176.31 71.0438V77.7645H175.385V71.061L176.31 71.0438ZM181.758 77.035C182.203 77.071 182.646 76.9397 183.009 76.6637C183.372 76.3878 183.634 75.9846 183.748 75.5243H184.711C184.57 76.2382 184.195 76.8749 183.654 77.3203C183.113 77.7656 182.441 77.9903 181.758 77.954C180.902 77.9172 180.092 77.528 179.499 76.8679C178.905 76.2078 178.574 75.328 178.574 74.4128C178.574 73.4975 178.905 72.6177 179.499 71.9576C180.092 71.2975 180.902 70.9083 181.758 70.8715C182.441 70.8353 183.113 71.06 183.654 71.5053C184.195 71.9506 184.57 72.5874 184.711 73.3013H183.748C183.633 72.8415 183.371 72.439 183.008 72.1632C182.645 71.8874 182.203 71.7557 181.758 71.7906C181.127 71.8221 180.531 72.1122 180.095 72.6005C179.659 73.0888 179.415 73.7378 179.415 74.4128C179.415 75.0877 179.659 75.7368 180.095 76.2251C180.531 76.7134 181.127 77.0034 181.758 77.035ZM192.8 71.0438V77.7645H191.891V77.0235C191.278 77.643 190.46 77.9776 189.616 77.954C188.76 77.9172 187.95 77.528 187.356 76.8679C186.763 76.2078 186.431 75.328 186.431 74.4128C186.431 73.4975 186.763 72.6177 187.356 71.9576C187.95 71.2975 188.76 70.9083 189.616 70.8715C190.459 70.8523 191.276 71.1863 191.891 71.802V71.061L192.8 71.0438ZM189.74 77.1039C190.166 77.1079 190.586 76.9975 190.962 76.7827C191.338 76.5679 191.658 76.2557 191.891 75.8747V73.0026C191.656 72.6237 191.336 72.3135 190.96 72.0998C190.585 71.8862 190.165 71.776 189.74 71.7791C189.076 71.7791 188.44 72.0605 187.971 72.5614C187.502 73.0623 187.239 73.7417 187.239 74.4501C187.239 75.1585 187.502 75.8379 187.971 76.3388C188.44 76.8397 189.076 77.1211 189.74 77.1211V77.1039ZM199.082 76.9144L199.232 77.7702C198.792 77.9182 198.333 77.9956 197.872 78C196.425 78 195.693 77.1154 195.693 75.3692V71.9227H193.989V71.061H195.656V68.5796H196.581V71.061H198.963V71.9227H196.581V75.3692C196.581 76.5927 197.027 77.0924 197.979 77.0924C198.343 77.0823 198.705 77.0225 199.055 76.9144H199.082ZM201.642 69.1885C201.561 69.1915 201.48 69.1775 201.403 69.1471C201.327 69.1167 201.258 69.0706 201.198 69.0113C201.139 68.9521 201.091 68.881 201.057 68.802C201.023 68.7229 201.005 68.6376 201.002 68.5508V68.5336C200.998 68.3974 201.031 68.2629 201.099 68.1471C201.166 68.0314 201.264 67.9396 201.38 67.8833C201.497 67.827 201.626 67.8087 201.752 67.8309C201.878 67.853 201.995 67.9145 202.088 68.0077C202.181 68.1008 202.246 68.2213 202.275 68.354C202.304 68.4867 202.296 68.6257 202.251 68.7533C202.206 68.8809 202.127 68.9914 202.023 69.0709C201.92 69.1504 201.796 69.1953 201.669 69.1999L201.642 69.1885ZM202.104 71.061V77.7817H201.179V71.061H202.104ZM207.617 70.8887C208.276 70.8921 208.918 71.104 209.464 71.4975C210.01 71.8911 210.434 72.4486 210.683 73.0996C210.932 73.7506 210.994 74.4658 210.863 75.1549C210.731 75.8439 210.411 76.4759 209.944 76.9707C209.476 77.4655 208.881 77.8011 208.235 77.935C207.588 78.0688 206.919 77.9949 206.312 77.7227C205.705 77.4504 205.187 76.992 204.824 76.4054C204.461 75.8188 204.269 75.1304 204.272 74.4271C204.263 73.5017 204.598 72.6103 205.202 71.9473C205.807 71.2844 206.632 70.9038 207.499 70.8887H207.617ZM207.617 77.1039C208.107 77.1185 208.59 76.9775 209.005 76.6988C209.421 76.4202 209.749 76.0163 209.949 75.5383C210.149 75.0603 210.212 74.5297 210.13 74.0134C210.048 73.4972 209.825 73.0185 209.488 72.6379C209.151 72.2574 208.716 71.992 208.238 71.8754C207.76 71.7587 207.261 71.796 206.803 71.9826C206.344 72.1692 205.948 72.4966 205.665 72.9236C205.381 73.3505 205.222 73.8577 205.208 74.3812V74.4271C205.198 74.7681 205.251 75.1079 205.364 75.427C205.477 75.7461 205.647 76.0383 205.866 76.2869C206.085 76.5355 206.347 76.7356 206.639 76.8758C206.93 77.016 207.244 77.0935 207.563 77.1039H207.617ZM216.142 70.8313C217.723 70.8313 218.831 72.0088 218.831 73.8987V77.7645H217.906V73.9446C217.906 72.543 217.131 71.7446 215.986 71.7446C215.56 71.7592 215.144 71.8801 214.771 72.0975C214.397 72.315 214.076 72.623 213.834 72.9968V77.7645H212.866V71.061H213.797V71.8652C214.1 71.5302 214.465 71.2654 214.868 71.0876C215.272 70.9097 215.705 70.8224 216.142 70.8313Z" fill="#22242B"/>
</svg>
